<svg id="Layer_1" data-name="Layer 1" xmlns="http://www.w3.org/2000/svg" viewBox="0 0 400 400"><defs><style>.cls-1{fill:#f24077;}.cls-2{fill:#f275a2;}.cls-3{fill:#d63c74;}</style></defs><title>favorited-task</title><path class="cls-1" d="M205.18,7.53,261.3,121.25a6.35,6.35,0,0,0,4.78,3.46L391.57,143a6.34,6.34,0,0,1,3.51,10.81l-90.81,88.51a6.36,6.36,0,0,0-1.82,5.61l21.44,125a6.34,6.34,0,0,1-9.2,6.69l-112.24-59a6.34,6.34,0,0,0-5.9,0l-112.24,59a6.34,6.34,0,0,1-9.2-6.69l21.44-125a6.36,6.36,0,0,0-1.82-5.61L3.92,153.76A6.34,6.34,0,0,1,7.43,143l125.49-18.24a6.35,6.35,0,0,0,4.78-3.46L193.82,7.53A6.33,6.33,0,0,1,205.18,7.53Z"/><path class="cls-2" d="M199.5,33.8l-50,96.87a16.74,16.74,0,0,1-13.35,9L27.55,149.57l114.72,5.37A16.75,16.75,0,0,0,158.76,144Z"/><path class="cls-3" d="M77.58,358.48l-2.47,14.38a6.34,6.34,0,0,0,9.2,6.69l112.24-59a6.34,6.34,0,0,1,5.9,0l112.24,59a6.34,6.34,0,0,0,9.2-6.69l-21.44-125a6.36,6.36,0,0,1,1.82-5.61l90.81-88.51A6.34,6.34,0,0,0,391.57,143l-42-6.11C281.55,258.84,177.45,323.08,77.58,358.48Z"/></svg>