<svg xmlns="http://www.w3.org/2000/svg" viewBox="0 0 400 400"><defs><style>.cls-1{isolation:isolate;}.cls-2{fill:#f44a9b;}.cls-3{fill:#ed1e79;}.cls-4{fill:#f3f4f6;}.cls-5{fill:#313965;}.cls-6{fill:#3e4b7f;}.cls-7{fill:#cde1f9;}.cls-13,.cls-16,.cls-17,.cls-7{mix-blend-mode:multiply;}.cls-8{fill:#f49a9a;}.cls-9{fill:#2a294f;}.cls-10{fill:#fe9280;}.cls-11{fill:#e86767;}.cls-12{fill:#5c86ff;}.cls-13,.cls-16,.cls-17{fill:#777470;}.cls-13{opacity:0.2;}.cls-14{fill:#fff4dd;}.cls-15{fill:#d3eaf5;}.cls-16{opacity:0.05;}.cls-17{opacity:0.15;}.cls-18{fill:#ea8181;}.cls-19{fill:#fff;}.cls-20,.cls-21{fill:none;stroke-miterlimit:10;}.cls-20{stroke:#313965;stroke-width:2px;}.cls-21{stroke:#ed1e79;stroke-width:6px;}</style></defs><title>finished-task</title><g class="cls-1"><g id="Layer_1" data-name="Layer 1"><rect class="cls-2" x="3.36" y="35.16" width="256.49" height="339.47" rx="9.45"/><path class="cls-3" d="M3.36,117.86V362.92a11.71,11.71,0,0,0,11.71,11.71H248.15a11.7,11.7,0,0,0,11.7-11.71V314.56Z"/><rect class="cls-4" x="18.27" y="50.82" width="226.68" height="308.14" rx="3.86"/><path class="cls-5" d="M151.05,28.75c0-.32,0-.64,0-1a19.49,19.49,0,1,0-39,0c0,.32,0,.64,0,1H83.51V58.46h96.2V28.75Z"/><polygon class="cls-6" points="83.51 28.75 83.51 58.46 179.71 58.46 83.51 28.75"/><rect class="cls-7" x="83.51" y="58.46" width="96.2" height="2.05"/><path class="cls-5" d="M217.35,110H98.46a1.4,1.4,0,0,1-1.4-1.4h0a1.4,1.4,0,0,1,1.4-1.41H217.35a1.4,1.4,0,0,1,1.4,1.41h0A1.4,1.4,0,0,1,217.35,110Z"/><path class="cls-5" d="M217.35,116.17H98.46a1.4,1.4,0,0,1-1.4-1.41h0a1.4,1.4,0,0,1,1.4-1.4H217.35a1.4,1.4,0,0,1,1.4,1.4h0A1.4,1.4,0,0,1,217.35,116.17Z"/><path class="cls-5" d="M217.35,122.36H98.46a1.4,1.4,0,0,1-1.4-1.41h0a1.4,1.4,0,0,1,1.4-1.4H217.35a1.4,1.4,0,0,1,1.4,1.4h0A1.4,1.4,0,0,1,217.35,122.36Z"/><path class="cls-5" d="M217.35,128.55H98.46a1.4,1.4,0,0,1-1.4-1.4h0a1.4,1.4,0,0,1,1.4-1.41H217.35a1.4,1.4,0,0,1,1.4,1.41h0A1.4,1.4,0,0,1,217.35,128.55Z"/><path class="cls-5" d="M217.35,168.71H98.46a1.4,1.4,0,0,1-1.4-1.4h0a1.4,1.4,0,0,1,1.4-1.41H217.35a1.4,1.4,0,0,1,1.4,1.41h0A1.4,1.4,0,0,1,217.35,168.71Z"/><path class="cls-5" d="M217.35,174.9H98.46a1.4,1.4,0,0,1-1.4-1.4h0a1.4,1.4,0,0,1,1.4-1.41H217.35a1.4,1.4,0,0,1,1.4,1.41h0A1.4,1.4,0,0,1,217.35,174.9Z"/><path class="cls-5" d="M217.35,181.1H98.46a1.4,1.4,0,0,1-1.4-1.41h0a1.4,1.4,0,0,1,1.4-1.4H217.35a1.4,1.4,0,0,1,1.4,1.4h0A1.4,1.4,0,0,1,217.35,181.1Z"/><path class="cls-5" d="M217.35,187.29H98.46a1.4,1.4,0,0,1-1.4-1.4h0a1.4,1.4,0,0,1,1.4-1.41H217.35a1.4,1.4,0,0,1,1.4,1.41h0A1.4,1.4,0,0,1,217.35,187.29Z"/><path class="cls-5" d="M217.35,227.45H98.46a1.4,1.4,0,0,1-1.4-1.41h0a1.4,1.4,0,0,1,1.4-1.4H217.35a1.4,1.4,0,0,1,1.4,1.4h0A1.4,1.4,0,0,1,217.35,227.45Z"/><path class="cls-5" d="M217.35,233.64H98.46a1.4,1.4,0,0,1-1.4-1.4h0a1.4,1.4,0,0,1,1.4-1.41H217.35a1.4,1.4,0,0,1,1.4,1.41h0A1.4,1.4,0,0,1,217.35,233.64Z"/><path class="cls-5" d="M217.35,239.84H98.46a1.4,1.4,0,0,1-1.4-1.41h0a1.4,1.4,0,0,1,1.4-1.4H217.35a1.4,1.4,0,0,1,1.4,1.4h0A1.4,1.4,0,0,1,217.35,239.84Z"/><path class="cls-5" d="M217.35,246H98.46a1.4,1.4,0,0,1-1.4-1.4h0a1.4,1.4,0,0,1,1.4-1.41H217.35a1.4,1.4,0,0,1,1.4,1.41h0A1.4,1.4,0,0,1,217.35,246Z"/><path class="cls-5" d="M217.35,286.19H98.46a1.4,1.4,0,0,1-1.4-1.41h0a1.4,1.4,0,0,1,1.4-1.4H217.35a1.4,1.4,0,0,1,1.4,1.4h0A1.4,1.4,0,0,1,217.35,286.19Z"/><path class="cls-5" d="M217.35,292.38H98.46a1.4,1.4,0,0,1-1.4-1.4h0a1.4,1.4,0,0,1,1.4-1.41H217.35a1.4,1.4,0,0,1,1.4,1.41h0A1.4,1.4,0,0,1,217.35,292.38Z"/><path class="cls-5" d="M217.35,298.57H98.46a1.4,1.4,0,0,1-1.4-1.4h0a1.39,1.39,0,0,1,1.4-1.4H217.35a1.39,1.39,0,0,1,1.4,1.4h0A1.4,1.4,0,0,1,217.35,298.57Z"/><path class="cls-5" d="M217.35,304.77H98.46a1.4,1.4,0,0,1-1.4-1.41h0a1.4,1.4,0,0,1,1.4-1.4H217.35a1.4,1.4,0,0,1,1.4,1.4h0A1.4,1.4,0,0,1,217.35,304.77Z"/><rect class="cls-8" x="284.97" y="363.56" width="5.65" height="6.96"/><polygon class="cls-9" points="285.01 368.94 287.97 369.86 290.71 368.94 293.18 374.59 270.33 374.59 278.92 371.77 285.01 368.94"/><polygon class="cls-8" points="344.23 370.52 349.88 370.52 347.78 363.56 342.13 363.56 344.23 370.52"/><polygon class="cls-9" points="349.38 368.94 346.42 369.86 343.68 368.94 341.21 374.59 364.06 374.59 355.47 371.77 349.38 368.94"/><path class="cls-10" d="M272.28,128.12c-.76.59-7.72,4.7-7.72,4.7l-4.93-6.32,1.47-7.21,10.62.67,1.86,5.37C274,126.61,273.23,127.4,272.28,128.12Z"/><path class="cls-11" d="M271.72,120l1.6,4.71-4.9,2a4.49,4.49,0,0,1-6.25-4.67l.32-2.59Z"/><path class="cls-8" d="M269.31,126.26l4.25.61,2.33-4a1.55,1.55,0,0,0-.48-2.13h0a1.55,1.55,0,0,0-2.13.48Z"/><polygon class="cls-12" points="261.67 143.44 252.91 145.66 249.78 171.01 260.03 171.43 261.67 143.44"/><path class="cls-10" d="M381.22,163.88,365.92,162l3.5-27.83,15.31,1.93a14,14,0,0,1,12.16,15.66h0A14,14,0,0,1,381.22,163.88Z"/><path class="cls-13" d="M382,157.54l-15.31-1.93-.79,6.34,15.3,1.93a14,14,0,0,0,15.67-12.17,13.81,13.81,0,0,0,0-3.21A14,14,0,0,1,382,157.54Z"/><polygon class="cls-2" points="364.05 161.72 201.66 140.77 205.16 112.94 367.55 133.89 364.05 161.72"/><polygon class="cls-14" points="172.73 122.99 201.66 140.77 205.16 112.94 172.73 122.99"/><polygon class="cls-13" points="172.73 122.99 201.66 140.77 202.51 133.96 172.73 122.99"/><polygon class="cls-9" points="182.39 120 172.73 122.99 181.34 128.28 182.39 120"/><rect class="cls-15" x="365.75" y="134.62" width="13.55" height="28.05" transform="translate(21.49 -45.37) rotate(7.18)"/><rect class="cls-15" x="374.63" y="133.98" width="4.63" height="30.45" transform="translate(21.59 -45.91) rotate(7.17)"/><polygon class="cls-13" points="372.9 162.83 201.66 140.77 202.51 133.96 373.75 156.02 372.9 162.83"/><polygon class="cls-16" points="375.54 141.81 204.3 119.75 205.16 112.94 376.4 135 375.54 141.81"/><rect class="cls-17" x="373.31" y="155.04" width="4.63" height="9.31" transform="translate(22.89 -45.66) rotate(7.17)"/><path class="cls-18" d="M320.68,230.74l2.29-5.93,7.73-.63a2.43,2.43,0,0,1,2.82,1.91h0a2.44,2.44,0,0,1-2.33,2.5Z"/><path class="cls-8" d="M316.68,224.86l4,5.88,7.58-1.55-8.49-12.62-1.63,1.09A5.19,5.19,0,0,0,316.68,224.86Z"/><polygon class="cls-12" points="322.95 222.87 348.71 195.88 335.13 192.72 319.77 216.57 322.95 222.87"/><path class="cls-12" d="M338.76,194.71a5.89,5.89,0,1,0,2.85-7.82A5.87,5.87,0,0,0,338.76,194.71Z"/><path class="cls-12" d="M340.75,197.06l8-8.48-27.79-32.94a6.59,6.59,0,0,0-9.94-.8h0c-2.87,2.81-2.58,12.77.61,15.21Z"/><rect class="cls-8" x="296" y="140.46" width="11.44" height="18.13" transform="translate(589.76 323.98) rotate(-175.16)"/><path class="cls-12" d="M254.36,167.17a5.13,5.13,0,1,0,5.46,4.78A5.13,5.13,0,0,0,254.36,167.17Z"/><path class="cls-12" d="M251.13,167.93l5.19,9.23L288.08,170c3.9-1,6-10.45,4.47-14.17h0a6.59,6.59,0,0,0-9.45-3.16Z"/><path class="cls-12" d="M316.77,220.22l3.46-60.46a5.59,5.59,0,0,0-4.66-6.9l-28.33-1a5.57,5.57,0,0,0-6.33,5.4l-5.8,73.49Z"/><polygon class="cls-6" points="289.68 220.22 296.2 240.56 293.3 366.71 281.66 366.71 275.11 230.73 276 220.22 289.68 220.22"/><polygon class="cls-5" points="289.68 220.22 296.05 245.2 300.63 245.2 341.68 366.71 351.22 366.71 322.32 236.71 316.77 220.22 289.68 220.22"/><path class="cls-8" d="M264.23,116.45h4.5a0,0,0,0,1,0,0v10.86a0,0,0,0,1,0,0h-4.5a1.15,1.15,0,0,1-1.15-1.15V117.6A1.15,1.15,0,0,1,264.23,116.45Z" transform="matrix(0.16, -0.99, 0.99, 0.16, 103.3, 365.03)"/><polygon class="cls-5" points="294.27 152.09 302.57 152.4 299.2 157.44 299.2 197.59 294.33 207.84 289.85 195.49 296.09 157.11 294.27 152.09"/><path class="cls-5" d="M316.91,126.16a14.07,14.07,0,0,0-3-7.49,13.49,13.49,0,0,0-6.14-4.15,8.13,8.13,0,0,0-3.47-.46,8.5,8.5,0,0,1-4.42-.31c-2-.88-3.42-2.6-5.21-3.72a6.48,6.48,0,0,0-1.36-.63h0a6.66,6.66,0,0,0-6.17.72,6.54,6.54,0,0,0-2.1,2.42,8.16,8.16,0,0,0-.92,3.08,10.17,10.17,0,0,0,1.54,6.19,12,12,0,0,0,4.22,4,11.86,11.86,0,0,0-.15,1.35,13.65,13.65,0,0,0,25.74,7A14.42,14.42,0,0,0,316.91,126.16Zm-28.54-2.58a18.9,18.9,0,0,1-1.78-2.38,9.56,9.56,0,0,1-1.68-5.54,7,7,0,0,1,2.51-5.15,5.4,5.4,0,0,1,2-1,4.61,4.61,0,0,0-1,.65,7.05,7.05,0,0,0-2.19,5,12,12,0,0,0,3.83,9.74l0,.15A14.58,14.58,0,0,1,288.37,123.58Z"/><path class="cls-8" d="M310.5,134.45a2.61,2.61,0,1,0,3-2.14A2.62,2.62,0,0,0,310.5,134.45Z"/><path class="cls-8" d="M299.4,119.93a9.22,9.22,0,0,0-8.38,5l-.34,1.79-.27,1.58v.22l0,0-.74,4.43a11.46,11.46,0,0,0,8.94,13.28A11.21,11.21,0,0,0,311.67,137l.92-5.42h0S314.31,121,299.4,119.93Z"/><path class="cls-19" d="M300.59,134.3c-.67-.42-5.08-1.24-5.61-.94a1.56,1.56,0,0,0-.66,1.71,2.66,2.66,0,0,0,1.17,1.53,4.41,4.41,0,0,0,4.26.35,2.4,2.4,0,0,0,1.22-1.13A1.26,1.26,0,0,0,300.59,134.3Z"/><path class="cls-5" d="M301.82,120.2a20.58,20.58,0,0,1,4.41,1.2,9.84,9.84,0,0,1,2.93,1.68c2.8,2.45.31,7.69-.66,10.42-.23.67-.51,1.47-.09,2a1.47,1.47,0,0,0,2,0,7,7,0,0,0,1.3-1.89,2.44,2.44,0,0,1,1.74-1.35l-.44-12.41c0-.09-7.8-.26-8.39-.28A9.19,9.19,0,0,0,301.82,120.2Z"/><rect class="cls-20" x="46.29" y="271.51" width="34.65" height="34.65"/><path class="cls-21" d="M55.33,287.07l8,7.95,21.94-21.95"/><rect class="cls-20" x="46.29" y="213.51" width="34.65" height="34.65"/><path class="cls-21" d="M55.33,229.07l8,8,21.94-22"/><rect class="cls-20" x="46.29" y="157.58" width="34.65" height="34.65"/><path class="cls-21" d="M55.33,173.14l8,8,21.94-22"/><rect class="cls-20" x="46.29" y="96.03" width="34.65" height="34.65"/><path class="cls-21" d="M55.33,111.59l8,8,21.94-22"/></g></g></svg>