<svg xmlns="http://www.w3.org/2000/svg" viewBox="0 0 400 400"><defs><style>.cls-1{isolation:isolate;}.cls-2{fill:#f9eaf5;}.cls-3{fill:#f24077;}.cls-4{fill:#be9cd8;opacity:0.2;mix-blend-mode:multiply;}.cls-5{fill:#313965;}.cls-6{fill:#fff;}.cls-7{fill:#f5b800;}.cls-8{fill:#ef9a00;}.cls-9{fill:#d9d1c2;}.cls-10{fill:#d63c74;}.cls-11{opacity:0.49;}.cls-12{fill:#f44e92;}.cls-13{fill:#00aeea;}.cls-14{fill:#ff7575;}</style></defs><title>ongoing-task</title><g class="cls-1"><g id="Layer_1" data-name="Layer 1"><path class="cls-2" d="M184.79,218.53c3.11-2.36,13.63-6.48,13.79-17.72-.16-11.24-10.68-15.35-13.79-17.71s-13.8-7-27-23.91-6.82-48.54-6.82-48.54H257.36s6.4,31.63-6.83,48.54-23.9,21.54-27,23.91-13.63,6.47-13.79,17.71c.16,11.24,10.59,15.49,13.79,17.72,5.9,4.1,14.62,8.84,27,23.9C264.19,259,257.36,291,257.36,291H150.94s-6.4-31.63,6.82-48.55S181.66,220.9,184.79,218.53Z"/><path class="cls-3" d="M210,249.31a6.55,6.55,0,0,1-4.69-5.93c-.8-14-.59-46,5.19-53.24a31.23,31.23,0,0,1,6.85-5.82c17.59-11.91,30.78-22.26,34.83-35.92h-96.8c2.84,11.58,19.18,27.42,35.5,35.92a57,57,0,0,1,6.54,3.62c6.63,4.61,6.92,40.18,6.19,55.19a6.59,6.59,0,0,1-4.88,6c-20.59,5.49-36.18,40.31-36.18,40.31h83.13S230.37,255.22,210,249.31Z"/><path class="cls-4" d="M184.79,218.53c3.11-2.36,13.63-6.48,13.79-17.72-.16-11.24-10.68-15.35-13.79-17.71s-13.8-7-27-23.91-6.82-48.54-6.82-48.54h9c-1.18,11-5.09,32.18,5.12,45.24,14.28,18.27,25.79,23.24,29.17,25.81s11.43,7,11.6,19.12c-.17,12.12-8.24,16.57-11.6,19.12s-14.89,7.53-29.17,25.8C154.89,258.8,158.8,280,160,291h-9s-6.4-31.63,6.82-48.55S181.66,220.9,184.79,218.53Z"/><path class="cls-5" d="M265.59,298.09a3.4,3.4,0,0,1-3.41,3.38H146.11a3.4,3.4,0,0,1-3.41-3.38v-5.24a3.39,3.39,0,0,1,3.41-3.37H262.18a3.39,3.39,0,0,1,3.41,3.37Z"/><path class="cls-4" d="M258.63,120.88h-109a89.58,89.58,0,0,1,1.28-10.23H257.36A91.23,91.23,0,0,1,258.63,120.88Z"/><path class="cls-4" d="M149.66,280.74h109A91.23,91.23,0,0,1,257.36,291H150.93A91.23,91.23,0,0,1,149.66,280.74Z"/><path class="cls-5" d="M265.59,109.56a3.39,3.39,0,0,1-3.41,3.37H146.11a3.39,3.39,0,0,1-3.41-3.37v-5.24a3.4,3.4,0,0,1,3.41-3.38H262.18a3.4,3.4,0,0,1,3.41,3.38Z"/><path class="cls-6" d="M255.25,125c-.66,14.75-2.2,36.23-36,56.62C230,171.21,245.36,159.93,255.25,125Z"/><path class="cls-6" d="M220.87,220.17c15.47,9.83,33.43,24.76,33.79,42.5.18,7-6.94,5.62-6.94-.88S242.92,235.45,220.87,220.17Z"/><polygon class="cls-5" points="124.39 342.25 97.88 312.62 59.07 322.32 47.57 359.09 112.89 379.01 124.39 342.25"/><polygon class="cls-7" points="59.07 322.32 47.57 359.09 112.89 379.01 59.07 322.32"/><polygon class="cls-7" points="124.39 342.25 47.57 359.09 112.89 379.01 124.39 342.25"/><polygon class="cls-8" points="85.98 350.67 47.57 359.09 112.89 379.01 85.98 350.67"/><polygon class="cls-9" points="92.12 316.93 77.1 312.34 77.57 310.84 92.59 315.42 92.12 316.93"/><polygon class="cls-9" points="113.59 327.01 76.09 315.57 76.56 314.06 114.06 325.5 113.59 327.01"/><polygon class="cls-9" points="112.58 330.23 75.08 318.79 75.55 317.29 113.06 328.73 112.58 330.23"/><polygon class="cls-9" points="111.58 333.46 74.07 322.02 74.54 320.51 112.05 331.95 111.58 333.46"/><polygon class="cls-9" points="110.57 336.68 73.06 325.24 73.53 323.74 111.04 335.18 110.57 336.68"/><polygon class="cls-9" points="109.56 339.9 72.06 328.47 72.53 326.96 110.03 338.4 109.56 339.9"/><polygon class="cls-9" points="108.55 343.13 71.05 331.69 71.52 330.19 109.02 341.63 108.55 343.13"/><path class="cls-2" d="M109.51,361.2l-49-14.94,12-38.46a3.68,3.68,0,0,1,4.59-2.39l42,12.8a3.61,3.61,0,0,1,2.42,4.54Z"/><polygon class="cls-3" points="59.07 322.32 47.57 359.09 112.89 379.01 59.07 322.32"/><polygon class="cls-3" points="124.39 342.25 47.57 359.09 112.89 379.01 124.39 342.25"/><polygon class="cls-10" points="85.98 350.67 47.57 359.09 112.89 379.01 85.98 350.67"/><polygon class="cls-3" points="92.12 316.93 77.1 312.34 77.57 310.84 92.59 315.42 92.12 316.93"/><polygon class="cls-3" points="113.59 327.01 76.09 315.57 76.56 314.06 114.06 325.5 113.59 327.01"/><polygon class="cls-3" points="112.58 330.23 75.08 318.79 75.55 317.29 113.06 328.73 112.58 330.23"/><polygon class="cls-3" points="111.58 333.46 74.07 322.02 74.54 320.51 112.05 331.95 111.58 333.46"/><polygon class="cls-3" points="110.57 336.68 73.06 325.24 73.53 323.74 111.04 335.18 110.57 336.68"/><polygon class="cls-3" points="109.56 339.9 72.06 328.47 72.53 326.96 110.03 338.4 109.56 339.9"/><polygon class="cls-3" points="108.55 343.13 71.05 331.69 71.52 330.19 109.02 341.63 108.55 343.13"/><path class="cls-5" d="M373.23,198.16l-43.16-13.94a4.65,4.65,0,0,1-3-5.86l17-51.25a4.73,4.73,0,0,1,5.93-3l43.16,14a4.64,4.64,0,0,1,3,5.85l-17,51.26A4.72,4.72,0,0,1,373.23,198.16Z"/><path class="cls-2" d="M368.37,191.26l-30.24-9.78c-2.57-.82-4.1-3.21-3.4-5.31l14.19-42.82c.69-2.09,3.36-3.13,5.92-2.3l30.24,9.77c2.57.83,4.09,3.22,3.4,5.32L374.29,189C373.6,191.05,370.93,192.08,368.37,191.26Z"/><path class="cls-5" d="M376.44,140l-14.13-4.56a.43.43,0,0,1-.27-.54l1.29-3.91a.44.44,0,0,1,.55-.27L378,135.26a.41.41,0,0,1,.27.53L377,139.7A.44.44,0,0,1,376.44,140Z"/><path class="cls-3" d="M375.72,152.29,355.5,145.8a.34.34,0,0,1-.23-.44l1.06-3.23a.36.36,0,0,1,.45-.23L377,148.39a.35.35,0,0,1,.22.45l-1.06,3.23A.36.36,0,0,1,375.72,152.29Z"/><path class="cls-3" d="M373.49,159.09l-20.23-6.49a.35.35,0,0,1-.23-.44l1.07-3.24a.36.36,0,0,1,.45-.22l20.22,6.49a.35.35,0,0,1,.23.44l-1.07,3.23A.35.35,0,0,1,373.49,159.09Z"/><path class="cls-3" d="M371.25,165.88,351,159.39a.35.35,0,0,1-.22-.44l1.06-3.23a.35.35,0,0,1,.45-.23L372.53,162a.35.35,0,0,1,.23.45l-1.06,3.23A.36.36,0,0,1,371.25,165.88Z"/><path class="cls-3" d="M369,172.68l-20.22-6.49a.35.35,0,0,1-.23-.44l1.06-3.24a.36.36,0,0,1,.45-.22l20.23,6.49a.34.34,0,0,1,.22.44l-1.06,3.23A.35.35,0,0,1,369,172.68Z"/><path class="cls-3" d="M366.66,179.84l-20.23-6.49a.36.36,0,0,1-.23-.45l1.07-3.23a.36.36,0,0,1,.45-.23l20.22,6.49a.35.35,0,0,1,.23.45l-1.06,3.23A.37.37,0,0,1,366.66,179.84Z"/><path class="cls-3" d="M384.52,244.71l-6.18,35a5.55,5.55,0,0,1-6.58,4.21L331.44,277a5.51,5.51,0,0,1-4.76-6.16l6.18-35a5.55,5.55,0,0,1,6.58-4.21l40.32,6.93A5.51,5.51,0,0,1,384.52,244.71Z"/><path class="cls-10" d="M384.77,243.29l-2.19,12.44-51.66-8.89,2.19-12.44c.37-2.07,3.2-3.32,6.33-2.78l40.32,6.93C382.89,239.09,385.14,241.21,384.77,243.29Z"/><path class="cls-6" d="M339.23,259.42l-4.79-.82a.34.34,0,0,1-.28-.4l.58-3.3a.35.35,0,0,1,.4-.28l4.79.83a.35.35,0,0,1,.29.4l-.58,3.29A.35.35,0,0,1,339.23,259.42Z"/><path class="cls-6" d="M346.54,260.68l-4.79-.82a.36.36,0,0,1-.29-.4l.59-3.3a.34.34,0,0,1,.4-.28l4.79.82a.36.36,0,0,1,.29.4l-.58,3.3A.36.36,0,0,1,346.54,260.68Z"/><path class="cls-6" d="M353.85,261.94l-4.79-.83a.35.35,0,0,1-.29-.4l.59-3.29a.34.34,0,0,1,.4-.28l4.79.82a.35.35,0,0,1,.29.4l-.58,3.3A.37.37,0,0,1,353.85,261.94Z"/><path class="cls-6" d="M361.16,263.19l-4.79-.82a.35.35,0,0,1-.29-.4l.58-3.3a.37.37,0,0,1,.41-.28l4.79.83a.35.35,0,0,1,.29.4l-.59,3.29A.34.34,0,0,1,361.16,263.19Z"/><path class="cls-6" d="M368.2,264.41l-4.79-.83a.34.34,0,0,1-.28-.4l.58-3.29a.35.35,0,0,1,.4-.29l4.79.83a.35.35,0,0,1,.29.4l-.58,3.29A.37.37,0,0,1,368.2,264.41Z"/><path class="cls-6" d="M375.23,265.61l-4.79-.82a.34.34,0,0,1-.28-.4l.58-3.3a.36.36,0,0,1,.41-.28l4.79.83a.34.34,0,0,1,.28.4l-.58,3.29A.35.35,0,0,1,375.23,265.61Z"/><path class="cls-6" d="M338.08,266l-4.79-.83a.35.35,0,0,1-.29-.4l.58-3.29a.35.35,0,0,1,.41-.28l4.79.82a.35.35,0,0,1,.29.4l-.58,3.3A.37.37,0,0,1,338.08,266Z"/><path class="cls-6" d="M345.39,267.21l-4.79-.82a.35.35,0,0,1-.29-.4l.58-3.29a.37.37,0,0,1,.41-.29l4.79.83a.35.35,0,0,1,.29.4l-.59,3.29A.34.34,0,0,1,345.39,267.21Z"/><path class="cls-6" d="M352.7,268.47l-4.79-.82a.36.36,0,0,1-.29-.4l.58-3.3a.36.36,0,0,1,.41-.28l4.79.82a.35.35,0,0,1,.28.4l-.58,3.3A.34.34,0,0,1,352.7,268.47Z"/><path class="cls-6" d="M360,269.73l-4.79-.83a.35.35,0,0,1-.29-.4l.58-3.29a.35.35,0,0,1,.41-.28l4.79.82a.34.34,0,0,1,.28.4l-.58,3.3A.35.35,0,0,1,360,269.73Z"/><path class="cls-6" d="M367.05,270.94l-4.79-.82a.36.36,0,0,1-.29-.4l.58-3.3a.36.36,0,0,1,.41-.28l4.79.82a.35.35,0,0,1,.29.4l-.59,3.3A.34.34,0,0,1,367.05,270.94Z"/><path class="cls-6" d="M374.08,272.15l-4.79-.83a.34.34,0,0,1-.28-.4l.58-3.29a.34.34,0,0,1,.4-.28l4.79.82a.35.35,0,0,1,.29.4l-.58,3.3A.37.37,0,0,1,374.08,272.15Z"/><path class="cls-6" d="M336.93,272.49l-4.79-.82a.35.35,0,0,1-.29-.4l.58-3.3a.36.36,0,0,1,.41-.28l4.79.82a.35.35,0,0,1,.28.4l-.58,3.3A.34.34,0,0,1,336.93,272.49Z"/><path class="cls-6" d="M344.24,273.75l-4.79-.83a.35.35,0,0,1-.29-.4l.58-3.29a.35.35,0,0,1,.41-.28l4.79.82a.34.34,0,0,1,.28.4l-.58,3.3A.35.35,0,0,1,344.24,273.75Z"/><path class="cls-6" d="M351.55,275l-4.8-.83a.34.34,0,0,1-.28-.4l.58-3.29a.36.36,0,0,1,.41-.29l4.79.83a.34.34,0,0,1,.28.4l-.58,3.29A.35.35,0,0,1,351.55,275Z"/><path class="cls-6" d="M358.85,276.26l-4.79-.82a.34.34,0,0,1-.28-.4l.58-3.3a.35.35,0,0,1,.4-.28l4.8.83a.34.34,0,0,1,.28.4l-.58,3.29A.35.35,0,0,1,358.85,276.26Z"/><path class="cls-6" d="M365.9,277.47l-4.79-.82a.35.35,0,0,1-.29-.4l.58-3.3a.36.36,0,0,1,.41-.28l4.79.83a.34.34,0,0,1,.28.4l-.58,3.29A.34.34,0,0,1,365.9,277.47Z"/><path class="cls-6" d="M372.93,278.68l-4.79-.82a.35.35,0,0,1-.29-.4l.58-3.3a.37.37,0,0,1,.41-.28l4.79.83a.35.35,0,0,1,.29.4l-.58,3.29A.35.35,0,0,1,372.93,278.68Z"/><path class="cls-5" d="M341.24,240.33h0a2.81,2.81,0,0,1-2.29-3.22l1.38-7.81a2.82,2.82,0,0,1,3.26-2.26h0a2.79,2.79,0,0,1,2.29,3.22l-1.38,7.8A2.82,2.82,0,0,1,341.24,240.33Z"/><path class="cls-5" d="M358.17,243.24h0a2.81,2.81,0,0,1-2.3-3.22l1.38-7.81a2.83,2.83,0,0,1,3.26-2.26h0a2.79,2.79,0,0,1,2.29,3.22l-1.37,7.8A2.83,2.83,0,0,1,358.17,243.24Z"/><path class="cls-5" d="M375.09,246.15h0a2.81,2.81,0,0,1-2.3-3.22l1.38-7.81a2.83,2.83,0,0,1,3.26-2.26h0a2.79,2.79,0,0,1,2.29,3.22l-1.37,7.8A2.83,2.83,0,0,1,375.09,246.15Z"/><polygon class="cls-3" points="95.18 76.93 89.91 79.68 76.43 54.49 81.69 51.74 95.18 76.93"/><polygon class="cls-5" points="94.31 75.3 89.04 78.05 76.43 54.49 81.69 51.74 94.31 75.3"/><polygon class="cls-3" points="102.05 73.34 96.79 76.09 88.25 60.13 93.51 57.39 102.05 73.34"/><polygon class="cls-3" points="108.92 69.76 103.66 72.5 83.07 34.03 88.33 31.28 108.92 69.76"/><polygon class="cls-3" points="115.8 66.17 110.53 68.92 94.47 38.91 99.74 36.17 115.8 66.17"/><polygon class="cls-3" points="122.67 62.59 117.4 65.33 109.27 50.13 114.53 47.38 122.67 62.59"/><polygon class="cls-3" points="129.54 59 124.28 61.75 107.2 29.84 112.46 27.09 129.54 59"/><polygon class="cls-3" points="136.41 55.41 131.15 58.16 108.91 16.61 114.17 13.86 136.41 55.41"/><polygon class="cls-5" points="96.08 62.18 90.81 64.93 88.03 59.73 93.3 56.99 96.08 62.18"/><polygon class="cls-5" points="89.92 34.25 84.65 36.99 83.07 34.03 88.33 31.28 89.92 34.25"/><polygon class="cls-5" points="104.95 45.92 99.69 48.66 94.47 38.91 99.74 36.17 104.95 45.92"/><polygon class="cls-5" points="118.91 55.56 113.65 58.31 105.72 43.51 110.99 40.76 118.91 55.56"/><polygon class="cls-5" points="116.42 34.49 111.16 37.24 107.2 29.84 112.46 27.09 116.42 34.49"/><polygon class="cls-5" points="133.84 50.61 128.57 53.35 108.91 16.61 114.17 13.86 133.84 50.61"/><path class="cls-2" d="M61,105.25a21.85,21.85,0,0,0-29.36-8.86,21.3,21.3,0,0,0-9,29,21.74,21.74,0,0,0,20.16,11.33c.81,3.15,9.35,9.46,14.29,6.87s3.58-14.14,2.12-15.49A21.18,21.18,0,0,0,61,105.25Z"/><path class="cls-3" d="M43.77,138.54l4.33,8h0c1.66,2.77,6.49,3.16,10.93.83s6.81-6.5,5.41-9.41h0l-4.32-8Z"/><polygon class="cls-6" points="61.84 133.12 45.48 141.71 44.9 140.63 61.26 132.04 61.84 133.12"/><g class="cls-11"><path class="cls-6" d="M29,108.68a4.68,4.68,0,0,1-.36,9.07,3.82,3.82,0,0,1-2.27-.09,4.68,4.68,0,0,1,.36-9.07A3.82,3.82,0,0,1,29,108.68Z"/></g><path class="cls-10" d="M78.25,214.25,56.74,228.62,33.85,195.21l21.51-14.37a1.94,1.94,0,0,1,3,1.3l3,19.07L78.15,211A1.9,1.9,0,0,1,78.25,214.25Z"/><polygon class="cls-5" points="57.71 218.84 52.47 222.34 56.75 228.59 57.71 218.84"/><path class="cls-3" d="M57.7,218.88,33.2,235.24,10.54,202.17l22.89-15.3a2,2,0,0,1,2.69.52Z"/><path class="cls-5" d="M53.42,270.63h0a3.69,3.69,0,0,1-5.08-1L3.35,204a3.59,3.59,0,0,1,1-5h0a3.68,3.68,0,0,1,5.08,1l45,65.64A3.59,3.59,0,0,1,53.42,270.63Z"/><path class="cls-3" d="M312.81,59.4,309.45,59a18.28,18.28,0,0,0-1.09-4.17l2.74-1.93a.61.61,0,0,0,.18-.81L309.5,49a.63.63,0,0,0-.79-.27l-3.08,1.3A19.62,19.62,0,0,0,303,47.28l1.49-2.94a.61.61,0,0,0-.22-.8l-3-1.94a.62.62,0,0,0-.83.13l-2.1,2.54A19.59,19.59,0,0,0,293,42.71l-.36-3.26a.64.64,0,0,0-.63-.55h-3.62a.64.64,0,0,0-.63.55l-.36,3.26a20,20,0,0,0-4.32,1.13l-1.94-2.66a.64.64,0,0,0-.82-.17l-3.15,1.76a.62.62,0,0,0-.27.79l1.32,3a20.22,20.22,0,0,0-2.78,2.61l-3-1.46a.63.63,0,0,0-.81.22l-1.95,3a.61.61,0,0,0,.13.82l2.61,2.08A18.89,18.89,0,0,0,270.88,59l-3.35.36A.63.63,0,0,0,267,60V63.6a.63.63,0,0,0,.56.62l3.37.36A19.15,19.15,0,0,0,272,68.72l-2.77,2a.61.61,0,0,0-.18.81l1.78,3.11a.63.63,0,0,0,.79.27l3.15-1.33a20.18,20.18,0,0,0,2.6,2.71l-1.54,3a.61.61,0,0,0,.22.8l3,1.94a.62.62,0,0,0,.83-.13l2.17-2.63a19.33,19.33,0,0,0,5.26,1.52l.37,3.38a.64.64,0,0,0,.63.56H292a.64.64,0,0,0,.63-.56l.37-3.38a19.43,19.43,0,0,0,4.24-1.1l2,2.76a.64.64,0,0,0,.82.17l3.15-1.76a.62.62,0,0,0,.27-.79L302.11,77a20.77,20.77,0,0,0,2.74-2.56l3.07,1.5a.63.63,0,0,0,.81-.22l1.95-3a.61.61,0,0,0-.13-.82l-2.65-2.11a19.07,19.07,0,0,0,1.54-5.15l3.37-.36a.63.63,0,0,0,.56-.62V60A.63.63,0,0,0,312.81,59.4ZM290.17,73.09A11.28,11.28,0,1,1,301.6,61.81,11.36,11.36,0,0,1,290.17,73.09Z"/><path class="cls-12" d="M348.79,54.1l-2.54-.28a14.7,14.7,0,0,0-.83-3.16l2.07-1.46a.47.47,0,0,0,.14-.62l-1.35-2.36a.47.47,0,0,0-.6-.2l-2.34,1a15.18,15.18,0,0,0-2-2.1l1.14-2.23a.46.46,0,0,0-.17-.61L340,40.59a.48.48,0,0,0-.63.1l-1.59,1.93a14.56,14.56,0,0,0-4.05-1.18L333.46,39a.47.47,0,0,0-.47-.42h-2.75a.47.47,0,0,0-.47.42l-.28,2.48a14.83,14.83,0,0,0-3.27.85l-1.48-2a.48.48,0,0,0-.62-.13l-2.39,1.34a.47.47,0,0,0-.2.6l1,2.29a14.68,14.68,0,0,0-2.11,2l-2.27-1.11a.49.49,0,0,0-.62.17l-1.48,2.28a.47.47,0,0,0,.1.62l2,1.58A14.49,14.49,0,0,0,317,53.82l-2.54.28a.48.48,0,0,0-.43.47v2.71a.48.48,0,0,0,.43.47L317,58a14.39,14.39,0,0,0,.84,3.14l-2.1,1.48a.47.47,0,0,0-.14.62L317,65.63a.47.47,0,0,0,.6.2l2.39-1a15.27,15.27,0,0,0,2,2l-1.17,2.3a.46.46,0,0,0,.17.61l2.31,1.47a.48.48,0,0,0,.63-.1l1.64-2a14.92,14.92,0,0,0,4,1.16l.29,2.57a.48.48,0,0,0,.47.42H333a.48.48,0,0,0,.47-.42l.29-2.57a14.44,14.44,0,0,0,3.21-.84l1.53,2.09a.47.47,0,0,0,.62.14l2.39-1.34a.47.47,0,0,0,.2-.6l-1-2.36a14.71,14.71,0,0,0,2.08-1.94l2.33,1.14a.49.49,0,0,0,.62-.17l1.48-2.28a.46.46,0,0,0-.1-.62l-2-1.61a14,14,0,0,0,1.17-3.9l2.56-.28a.48.48,0,0,0,.43-.47V54.57A.48.48,0,0,0,348.79,54.1ZM333.08,64.37a8.57,8.57,0,1,1,7.08-7A8.63,8.63,0,0,1,333.08,64.37Z"/><path class="cls-10" d="M334.4,84.79l-1.88-.2a11.5,11.5,0,0,0-.61-2.34l1.53-1.08a.35.35,0,0,0,.1-.45l-1-1.75a.34.34,0,0,0-.44-.15l-1.73.73A10.76,10.76,0,0,0,328.9,78l.84-1.65a.35.35,0,0,0-.12-.45l-1.71-1.09a.35.35,0,0,0-.46.07l-1.18,1.43a11.09,11.09,0,0,0-3-.87l-.21-1.83a.35.35,0,0,0-.35-.31h-2a.35.35,0,0,0-.35.31l-.2,1.83a10.9,10.9,0,0,0-2.42.63l-1.09-1.49a.35.35,0,0,0-.46-.1l-1.76,1a.34.34,0,0,0-.15.44L315,77.6a10.86,10.86,0,0,0-1.56,1.47l-1.68-.82a.35.35,0,0,0-.45.12l-1.1,1.69a.34.34,0,0,0,.08.46l1.46,1.16a11,11,0,0,0-.85,2.91l-1.88.2a.36.36,0,0,0-.32.35v2a.36.36,0,0,0,.32.35l1.89.2a10.58,10.58,0,0,0,.62,2.32L310,91.11a.33.33,0,0,0-.1.45l1,1.75a.36.36,0,0,0,.45.15l1.77-.75a10.43,10.43,0,0,0,1.45,1.52l-.86,1.7a.35.35,0,0,0,.12.45l1.7,1.09a.36.36,0,0,0,.47-.07l1.22-1.48a11.19,11.19,0,0,0,2.94.85l.21,1.9a.35.35,0,0,0,.35.31h2a.35.35,0,0,0,.35-.31l.21-1.9a11.09,11.09,0,0,0,2.38-.61l1.13,1.54a.35.35,0,0,0,.46.1l1.76-1a.34.34,0,0,0,.15-.44l-.76-1.75a11,11,0,0,0,1.54-1.43l1.72.84a.35.35,0,0,0,.45-.12l1.1-1.69a.36.36,0,0,0-.08-.46l-1.49-1.18a10.41,10.41,0,0,0,.87-2.89l1.89-.2a.35.35,0,0,0,.31-.35v-2A.35.35,0,0,0,334.4,84.79Zm-12.69,7.67a6.32,6.32,0,1,1,6.4-6.32A6.37,6.37,0,0,1,321.71,92.46Z"/><path class="cls-3" d="M204.66,30.17,192.86,9.5a23.68,23.68,0,0,0,11.8,44.4,24,24,0,0,0,22.93-16.6Z"/><path class="cls-12" d="M204.86,2.54a24.15,24.15,0,0,0-11.81,3.07l11.81,20.67.11,0L215,4.77A24.29,24.29,0,0,0,204.86,2.54Z"/><path class="cls-10" d="M232.44,28.22a23.71,23.71,0,0,0-13.86-21.5L208.51,28.25l22.83,7.1A23.63,23.63,0,0,0,232.44,28.22Z"/><path class="cls-2" d="M193,382.2a3.42,3.42,0,0,0,3.37,3.46H217L228.37,398l-.74-12.34h4.25a3.41,3.41,0,0,0,3.37-3.46V357a3.41,3.41,0,0,0-3.37-3.47H196.41A3.42,3.42,0,0,0,193,357Z"/><path class="cls-10" d="M193,357.24v25.34h28.81a3.66,3.66,0,0,0,3.72-3.62V353.62s0,0,0-.06h-28.8A3.7,3.7,0,0,0,193,357.24Z"/><path class="cls-2" d="M220.46,375.75a3.7,3.7,0,0,1-3.72,3.67H192.1l-12.6,13.1.82-13.1h-4.7a3.7,3.7,0,0,1-3.72-3.67V349a3.7,3.7,0,0,1,3.72-3.67h41.12a3.69,3.69,0,0,1,3.72,3.67Z"/><path class="cls-3" d="M189.85,362.37a2.87,2.87,0,1,1-2.87-2.83A2.85,2.85,0,0,1,189.85,362.37Z"/><path class="cls-3" d="M199.05,362.37a2.87,2.87,0,1,1-2.86-2.83A2.85,2.85,0,0,1,199.05,362.37Z"/><path class="cls-3" d="M208.25,362.37a2.87,2.87,0,1,1-2.86-2.83A2.85,2.85,0,0,1,208.25,362.37Z"/><path class="cls-13" d="M306.12,375.83a26.31,26.31,0,1,1,26.64-26.31A26.51,26.51,0,0,1,306.12,375.83Zm0-47.76a21.45,21.45,0,1,0,21.72,21.45A21.62,21.62,0,0,0,306.12,328.07Z"/><path class="cls-2" d="M306.12,375.83a26.31,26.31,0,1,1,26.64-26.31A26.51,26.51,0,0,1,306.12,375.83Zm0-46.9A20.59,20.59,0,1,0,327,349.52,20.75,20.75,0,0,0,306.12,328.93Z"/><path class="cls-2" d="M306.12,367a17.47,17.47,0,1,1,17.69-17.47A17.61,17.61,0,0,1,306.12,367Zm0-32.51a15,15,0,1,0,15.22,15A15.15,15.15,0,0,0,306.12,334.48Z"/><path class="cls-2" d="M306.12,360.11a10.59,10.59,0,1,1,10.72-10.59A10.67,10.67,0,0,1,306.12,360.11Zm0-18.75a8.16,8.16,0,1,0,8.26,8.16A8.22,8.22,0,0,0,306.12,341.36Z"/><path class="cls-2" d="M306.12,352.77a3.26,3.26,0,1,1,3.3-3.25A3.28,3.28,0,0,1,306.12,352.77Z"/><path class="cls-3" d="M325.13,325.77l-19.58,23.06a.81.81,0,0,0,.1,1.15l20.56-24.35A.82.82,0,0,0,325.13,325.77Z"/><path class="cls-10" d="M326.21,325.63,305.65,350a.84.84,0,0,0,1.16-.1l19.58-23.07a.8.8,0,0,0-.1-1.14Z"/><polygon class="cls-3" points="323.73 327.48 318.43 333.68 317.36 326.51 322.66 320.31 323.73 327.48"/><polygon class="cls-10" points="325.08 328.34 319.81 334.56 327.14 334.37 332.41 328.15 325.08 328.34"/><path class="cls-3" d="M244.36,56.93a1.65,1.65,0,1,1-1.65-1.63A1.64,1.64,0,0,1,244.36,56.93Z"/><path class="cls-3" d="M277.77,16.6a.83.83,0,1,1-.82-.81A.82.82,0,0,1,277.77,16.6Z"/><path class="cls-3" d="M141.63,1.53A1.24,1.24,0,1,1,140.39.31,1.23,1.23,0,0,1,141.63,1.53Z"/><path class="cls-3" d="M83.46,99.3a1.65,1.65,0,1,1-1.65-1.63A1.64,1.64,0,0,1,83.46,99.3Z"/><path class="cls-3" d="M98.31,241.87a2.06,2.06,0,1,1-2.06-2A2.05,2.05,0,0,1,98.31,241.87Z"/><ellipse class="cls-3" cx="15.8" cy="152.25" rx="1.65" ry="1.63"/><ellipse class="cls-3" cx="148.23" cy="350.22" rx="2.06" ry="2.04"/><path class="cls-3" d="M23.23,319.26a2.48,2.48,0,1,1-2.48-2.44A2.47,2.47,0,0,1,23.23,319.26Z"/><path class="cls-3" d="M333.88,299.71a2.48,2.48,0,1,1-2.48-2.44A2.47,2.47,0,0,1,333.88,299.71Z"/><ellipse class="cls-3" cx="247.66" cy="394.62" rx="1.65" ry="1.63"/><path class="cls-3" d="M397,213.35a1.65,1.65,0,1,1-1.65-1.63A1.64,1.64,0,0,1,397,213.35Z"/><path class="cls-3" d="M371.83,95.63a2.06,2.06,0,1,1-2.06-2A2,2,0,0,1,371.83,95.63Z"/><path class="cls-3" d="M160.12,38.59h-2V36.65a1,1,0,0,0-2,0v1.94h-2a1,1,0,1,0,0,1.94h2v1.94a1,1,0,0,0,2,0V40.53h2a1,1,0,1,0,0-1.94Z"/><path class="cls-3" d="M259.3,5.05h-2V3.11a1,1,0,0,0-2,0V5.05h-2a1,1,0,1,0,0,1.94h2V8.92a1,1,0,0,0,2,0V7h2a1,1,0,1,0,0-1.94Z"/><path class="cls-3" d="M322,124.07h-2v-1.94a1,1,0,0,0-2,0v1.94h-2a1,1,0,1,0,0,1.94h2V128a1,1,0,0,0,2,0V126h2a1,1,0,1,0,0-1.94Z"/><path class="cls-3" d="M332.27,208.32h-2v-1.94a1,1,0,0,0-2,0v1.94h-2a1,1,0,1,0,0,1.94h2v1.93a1,1,0,0,0,2,0v-1.93h2a1,1,0,1,0,0-1.94Z"/><path class="cls-14" d="M363.64,313.87h-2v-1.94a1,1,0,0,0-2,0v1.94h-2a1,1,0,1,0,0,1.94h2v1.94a1,1,0,0,0,2,0v-1.94h2a1,1,0,1,0,0-1.94Z"/><path class="cls-3" d="M263.39,373.88h-2v-1.94a1,1,0,0,0-2,0v1.94h-2a1,1,0,1,0,0,1.94h2v1.94a1,1,0,0,0,2,0v-1.94h2a1,1,0,1,0,0-1.94Z"/><path class="cls-3" d="M140.64,390.63h-2v-1.94a1,1,0,0,0-2,0v1.94h-2a1,1,0,1,0,0,1.94h2v1.94a1,1,0,0,0,2,0v-1.94h2a1,1,0,1,0,0-1.94Z"/><path class="cls-3" d="M14.4,276.84h-2V274.9a1,1,0,0,0-2,0v1.94h-2a1,1,0,1,0,0,1.94h2v1.93a1,1,0,0,0,2,0v-1.93h2a1,1,0,1,0,0-1.94Z"/><path class="cls-3" d="M78.5,162.53h-2v-1.94a1,1,0,0,0-2,0v1.94h-2a1,1,0,1,0,0,1.94h2v1.94a1,1,0,0,0,2,0v-1.94h2a1,1,0,1,0,0-1.94Z"/><path class="cls-3" d="M54.63,62.12h-2V60.18a1,1,0,0,0-2,0v1.94h-2a1,1,0,1,0,0,1.94h2V66a1,1,0,0,0,2,0V64.06h2a1,1,0,1,0,0-1.94Z"/></g></g></svg>