<?xml version="1.0" encoding="utf-8"?>
<!-- Generator: Adobe Illustrator 23.0.1, SVG Export Plug-In . SVG Version: 6.00 Build 0)  -->
<svg version="1.1" id="Layer_1" xmlns="http://www.w3.org/2000/svg" xmlns:xlink="http://www.w3.org/1999/xlink" x="0px" y="0px"
	 viewBox="0 0 397 116.3" style="enable-background:new 0 0 397 116.3;" xml:space="preserve">
<style type="text/css">
	.st0{fill:#FFFFFF;}
</style>
<path class="st0" d="M145,27.3L145,27.3c-23.7-0.8-43.6,17.8-44.4,41.5c-0.8,23.7,17.8,43.6,41.5,44.4c1,0,2,0,2.9,0l0,0
	c23.7,0.8,43.6-17.8,44.4-41.5c0.8-23.7-17.8-43.6-41.5-44.4C147,27.2,146,27.2,145,27.3z M171.4,67.4l-23.7,20.4l0,0l-2.1,1.8
	c-2.6,2.2-6.3,2.3-9,0.2h-0.1l-0.6-0.6c-0.1-0.1-0.2-0.2-0.3-0.3l0,0l-16-15.7c-2.8-2.7-2.8-7.2-0.1-10c2.7-2.7,7-2.9,9.8-0.3
	l12.3,11.6l20.5-17.6c3-2.6,7.4-2.2,10,0.8C174.8,60.4,174.4,64.9,171.4,67.4L171.4,67.4z"/>
<path class="st0" d="M66.1,42.2c-5.9-7.3-14.6-11.9-26.5-11.9C17.9,30.3,0,49,0,73.3s17.9,43,39.5,43c11.9,0,20.7-4.6,26.5-11.9v9.6
	h21V0h-21V42.2z M43.5,96.2c-12.9,0-22.5-9.3-22.5-23s9.6-22.9,22.5-22.9c13,0,22.6,9.3,22.6,22.9S56.5,96.2,43.5,96.2L43.5,96.2z"
	/>
<path class="st0" d="M246.1,30.3c-10.1,0-17.6,3.7-22.1,10.6v-8.3h-21v81.4h21V66.7c0-12.2,6.4-16.9,14.6-16.9
	c7.3,0,12.9,4.4,12.9,13.7v50.5h21V61.8C272.5,42,261.2,30.3,246.1,30.3z"/>
<path class="st0" d="M369,70.2c0-23.9-16.6-43-40.5-43c-25.7,0-43.1,18.7-43.1,43s17.1,43,43.6,43c18.2,0,32.5-9.3,37.6-25.7
	l-20.7,0.2c-2.8,4.6-9.3,8.1-16.8,8.1c-10.4,0-19.2-5.4-22-16.9h61C368.8,76.1,369.1,73.2,369,70.2z M307,62.4
	c2.6-10.2,10.1-16.3,21.3-16.3c8.8,0,17.2,4.6,19.7,16.3H307z"/>
<circle class="st0" cx="384.5" cy="101.3" r="12.5"/>
</svg>
